<svg class="logo" xmlns="http://www.w3.org/2000/svg" width="163" height="48"	viewBox="0 0 163 48">

	<path d="M14.8,5.9c4.6,0,8.5,1.6,11.6,4.8c3.1,3.2,4.7,7.2,4.7,12s-1.6,8.8-4.7,12c-3.1,3.2-7,4.8-11.6,4.8H1.4V5.9H14.8z
			 M14.8,32.1c2.7,0,4.8-0.9,6.5-2.6c1.6-1.7,2.5-4,2.5-6.8s-0.8-5.1-2.5-6.8c-1.6-1.7-3.8-2.6-6.5-2.6H9.1v18.8H14.8z" fill="#ffc600"/>
		<path d="M43.6,32.1h13.4v7.4H35.9V5.9h20.9v7.4H43.6v5.6h12v7.3h-12V32.1z" fill="#ffc600"/>
		<path d="M69.9,39.5L59,5.9h8.4l7.4,24.7l7.4-24.7h8.4L79.7,39.5H69.9z" fill="#ffc600"/>
		<path d="M94,5.9h7.7v33.6H94V5.9z" fill="#ffc600"/>
		<path d="M124,40.2c-5,0-9.2-1.7-12.5-5c-3.3-3.3-5-7.5-5-12.5c0-5,1.7-9.1,5-12.5c3.3-3.3,7.5-5,12.5-5c3,0,5.8,0.7,8.4,2.1
			s4.6,3.3,6,5.7l-6.6,3.8c-0.7-1.3-1.8-2.3-3.2-3c-1.4-0.7-2.9-1.1-4.6-1.1c-3,0-5.4,0.9-7.1,2.7c-1.8,1.8-2.7,4.2-2.7,7.2
			c0,3,0.9,5.4,2.7,7.2c1.8,1.8,4.2,2.7,7.1,2.7c1.7,0,3.2-0.4,4.6-1.1c1.4-0.7,2.4-1.7,3.1-3l6.6,3.8c-1.4,2.4-3.4,4.3-6,5.7
			C129.8,39.5,127,40.2,124,40.2z" fill="#ffc600"/>
		<path d="M150.1,32.1h13.4v7.4h-21.1V5.9h20.9v7.4h-13.2v5.6h12v7.3h-12V32.1z" fill="#ffc600"/>
</svg>
